<svg xmlns="http://www.w3.org/2000/svg" viewBox="0 0 501 501"><defs><style>.cls-1{fill:#fff;stroke:#000;stroke-miterlimit:10;}.cls-2{fill:none;stroke:#1d1d1b;stroke-linecap:round;stroke-linejoin:round;stroke-width:4px;}.cls-3{fill:#333;}</style></defs><g id="Шар_2" data-name="Шар 2"><rect class="cls-1" x="0.5" y="0.5" width="500" height="500"/></g><g id="Шар_1" data-name="Шар 1"><path class="cls-2" d="M249.5,5.69c18.54,11,47.29,19.79,76.9,28.65,51.82,15.51,92.68,18,122.14,15.08a936.56,936.56,0,0,1,1.51,110.08c-3.31,73.44-5.8,128.71-34.68,188.48-10,20.73-29.16,59.68-70.87,95a264.53,264.53,0,0,1-95,51.26v0a264.59,264.59,0,0,1-95-51.27c-41.71-35.31-60.85-74.27-70.87-95C54.75,288.25,52.26,233,49,159.53A936.38,936.38,0,0,1,50.46,49.46c29.46,2.88,70.32.42,122.14-15.08,29.61-8.86,58.36-17.7,76.9-28.65" transform="translate(0 0)"/><path class="cls-2" d="M249.5,26.49c16.95,10,43.23,18.09,70.29,26.18,47.37,14.17,84.72,16.42,111.65,13.79a856,856,0,0,1,1.38,100.61c-3,67.14-5.31,117.66-31.7,172.3-9.16,18.94-26.65,54.55-64.79,86.83a241.68,241.68,0,0,1-86.83,46.86v0a241.84,241.84,0,0,1-86.83-46.86C124.53,394,107,358.35,97.88,339.4c-26.39-54.64-28.67-105.15-31.7-172.29A856.24,856.24,0,0,1,67.56,66.49c26.93,2.64,64.28.39,111.65-13.78,27.06-8.1,53.34-16.18,70.29-26.19" transform="translate(0 0)"/><path class="cls-3" d="M381.91,236.86q0,40.68-30.8,76.62-29.66,34.59-62,44.1a10.89,10.89,0,0,1-8.55-.95q-22.81-11.79-45.82-23.57-33.47-15.21-53.43-14.83a30,30,0,0,0-13.5,3.42q-14.45,6.84-17.11,20-1.33,6.28,3.62,7,11.4-4.38,27.18-9.7c2.66-.51,4.19-.38,4.57.38l.57,3.61q.94,6.85,2.47,17.31c.38,2.78.5,4.24.38,4.37-.13,1.14-1.33,1.83-3.61,2.09q-35.37,4-49.63-3.61-4.19-2.28-4.37-7.8-.19-4.76,2.09-13.12a79.32,79.32,0,0,1,11.41-24.52q17.68-25.29,46-31.75A70.87,70.87,0,0,1,207,284.2q19.2.18,43.54,11,16.92,8.76,52.28,24.15,6.66,2.47,12-.19,10.84-5.13,24.72-20.91a102.77,102.77,0,0,0,12.16-16.93q8.18-13.48,7-19.2-7.23-34.21-37.08-63.88-1.71-1.71-14.25-12.93-5.72-5.33-5.71-5.7,0-3.24,13.12-8.18a51.2,51.2,0,0,1-28.9-3.61q-2.67-1.14-25.48-13.88-10.65-5.9-29.37-10.65T200,138.56q-30.6,0-30.61,21.68c0,4.94,1.08,7.67,3.24,8.17q7.41.76,19,1.9,2.28.19,1,3.8-3.24,9.33-8.75,23.77c-.76,1.65-1.39,2.41-1.9,2.28-1.14-.63-2.22-1.26-3.23-1.9q-23.58-11.79-23.95-34.6-.57-32.9,27.56-47.53,20.91-11,54.19-11,51.53,0,95.06,33.27Q381.92,177,381.91,236.86ZM244.45,155.48a15.77,15.77,0,0,0-2.47,7.8q-.57,35.17-1.71,85.55-.2,5.52-7.79,11.41-3.81,2.67-11.41,8.37-10.08,8.94-12.55,9.88-6.09,2.1-5.32-3.42,1.89-13.31,5.51-43.16,4.75-39,4.75-47.72,0-8.55-6.08-11.79L203,170.12c-2.16-1.14-3.24-2.21-3.24-3.23a2.94,2.94,0,0,1,2.1-3.14q2.08-.66,8.17-2.37,3.24-.57,11.6-2.86,3.42-1.14,10.65-3.23,3.79-1.51,9.69-3.61a4.79,4.79,0,0,1,2.66,0q1.14.57.57,2.28A7.82,7.82,0,0,1,244.45,155.48Z" transform="translate(0 0)"/></g></svg>