<svg id="Шар_1" data-name="Шар 1" xmlns="http://www.w3.org/2000/svg" viewBox="0 0 389 470.77"><defs><style>.cls-1{fill:none;stroke:#1d1d1b;stroke-linecap:round;stroke-linejoin:round;stroke-width:4px;}.cls-2{fill:#333;}</style></defs><path class="cls-1" d="M249.5,16.6C267.21,27.06,294.68,35.51,323,44c49.5,14.81,88.53,17.16,116.68,14.41a893.31,893.31,0,0,1,1.44,105.16c-3.16,70.16-5.54,123-33.13,180.06-9.57,19.8-27.85,57-67.71,90.76a252.65,252.65,0,0,1-90.75,49v0a252.55,252.55,0,0,1-90.75-49c-39.86-33.74-58.14-70.95-67.71-90.75-27.59-57.1-30-109.9-33.13-180.07A893.18,893.18,0,0,1,59.35,58.42C87.5,61.17,126.53,58.82,176,44c28.29-8.46,55.76-16.91,73.47-27.37" transform="translate(-55 -14.6)"/><path class="cls-1" d="M249.5,36.47c16.19,9.56,41.3,17.28,67.15,25C361.91,75,397.59,77.17,423.31,74.65a815.47,815.47,0,0,1,1.32,96.13c-2.89,64.14-5.07,112.4-30.29,164.59-8.74,18.1-25.45,52.12-61.88,83a231,231,0,0,1-83,44.77v0a231,231,0,0,1-83-44.77c-36.43-30.84-53.14-64.85-61.88-82.95C79.44,283.21,77.26,235,74.37,170.81a815.34,815.34,0,0,1,1.32-96.12c25.72,2.51,61.4.37,106.66-13.17,25.85-7.74,51-15.46,67.15-25" transform="translate(-55 -14.6)"/><path class="cls-2" d="M376,237.44q0,38.88-29.42,73.2-28.33,33.06-59.22,42.14a10.47,10.47,0,0,1-8.17-.91q-21.79-11.26-43.77-22.52-32-14.53-51-14.17a28.69,28.69,0,0,0-12.9,3.27q-13.8,6.54-16.35,19.07-1.26,6,3.46,6.72,10.89-4.19,26-9.26c2.54-.49,4-.36,4.36.36l.54,3.45q.91,6.54,2.36,16.53a17.6,17.6,0,0,1,.37,4.18c-.12,1.09-1.27,1.75-3.45,2q-33.8,3.81-47.41-3.45c-2.66-1.46-4.06-3.94-4.18-7.45q-.18-4.55,2-12.53a75.46,75.46,0,0,1,10.9-23.43Q166.94,290.47,194,284.3a67.7,67.7,0,0,1,14.9-1.63q18.35.18,41.59,10.53,16.17,8.35,49.95,23.07,6.36,2.37,11.44-.18,10.37-4.9,23.62-20a98.83,98.83,0,0,0,11.62-16.17q7.8-12.88,6.72-18.34-6.9-32.7-35.42-61-1.64-1.63-13.62-12.35-5.44-5.08-5.45-5.45,0-3.09,12.53-7.81a48.85,48.85,0,0,1-27.6-3.45q-2.55-1.09-24.34-13.26-10.19-5.62-28.07-10.17t-29.69-4.54q-29.25,0-29.25,20.7,0,7.09,3.09,7.81,7.08.73,18.17,1.82,2.17.18.9,3.63-3.09,8.91-8.35,22.71c-.73,1.57-1.34,2.3-1.82,2.18-1.09-.61-2.12-1.21-3.09-1.82Q159.32,189.31,159,167.51q-.54-31.41,26.34-45.4,20-10.55,51.76-10.54,49.21,0,90.82,31.79Q376,180.23,376,237.44ZM244.68,159.7a15,15,0,0,0-2.36,7.45q-.56,33.6-1.64,81.73-.18,5.28-7.44,10.9-3.65,2.55-10.9,8-9.63,8.55-12,9.45-5.82,2-5.08-3.27,1.8-12.7,5.26-41.23,4.54-37.23,4.54-45.59,0-8.17-5.81-11.26l-4.18-2.18C203,172.6,202,171.57,202,170.6a2.81,2.81,0,0,1,2-3c1.33-.42,3.94-1.18,7.81-2.27q3.09-.54,11.08-2.72c2.18-.73,5.57-1.75,10.17-3.09,2.43-1,5.51-2.12,9.27-3.45a4.55,4.55,0,0,1,2.54,0c.73.36.91,1.09.55,2.18A8.83,8.83,0,0,1,244.68,159.7Z" transform="translate(-55 -14.6)"/></svg>