<svg id="Шар_1" data-name="Шар 1" xmlns="http://www.w3.org/2000/svg" viewBox="0 0 500 500"><defs><style>.cls-1{fill:#fffbf5;stroke:#1d1d1b;stroke-linecap:round;stroke-linejoin:round;stroke-width:10px;}</style></defs><path class="cls-1" d="M249.5,7c18.44,10.89,47,19.69,76.49,28.5,51.54,15.42,92.18,17.86,121.48,15A927,927,0,0,1,449,160c-3.29,73.05-5.77,128-34.49,187.48-10,20.61-29,59.36-70.49,94.48a263.42,263.42,0,0,1-94.49,51v0A263.2,263.2,0,0,1,155,442c-41.49-35.13-60.53-73.87-70.49-94.49C55.8,288,53.32,233.07,50,160a927,927,0,0,1,1.5-109.49c29.3,2.87,69.94.42,121.48-15C202.46,26.72,231.06,17.92,249.5,7" transform="translate(0 0)"/></svg>